<svg width="516" height="387" viewBox="0 0 516 387" fill="none" xmlns="http://www.w3.org/2000/svg">
<g id="No Chat History">
<path id="Fill 1" fill-rule="evenodd" clip-rule="evenodd" d="M279.354 0C232.169 0 188.8 15.7202 154.557 42.0215H99.2122C92.0218 42.0215 86.1387 47.6944 86.1387 54.628C86.1387 61.5615 92.0218 67.2344 99.2122 67.2344H127.379H135.632C142.823 67.2344 148.706 72.9073 148.706 79.8409C148.706 83.3035 147.233 86.4635 144.862 88.741C142.5 91.027 139.223 92.4473 135.632 92.4473H118.023H108.3H60.8633C53.6729 92.4473 47.7898 98.1202 47.7898 105.054C47.7898 111.987 53.6729 117.66 60.8633 117.66H94.823C84.5716 140.891 78.8934 166.453 78.8934 193.299C78.8934 203.04 79.6429 212.612 81.081 221.966C81.6824 225.874 82.4058 229.748 83.2512 233.581C107.917 229.942 134.081 227.017 161.396 224.882L163.453 226.689L165.388 224.58C198.202 222.117 232.646 220.806 268.171 220.806C343.649 220.806 414.281 226.723 474.672 237.01C476.999 227.278 478.567 217.268 479.308 207.032C479.648 202.493 479.814 197.913 479.814 193.299C479.814 86.5391 390.069 0 279.354 0Z" fill="#F1F2F7"/>
<path id="Fill 3" fill-rule="evenodd" clip-rule="evenodd" d="M21.1659 91.8644H13.2431C5.95938 91.8644 0 97.6518 0 104.725C0 111.799 5.95938 117.586 13.2431 117.586H21.1659C28.4496 117.586 34.409 111.799 34.409 104.725C34.409 97.6518 28.4496 91.8644 21.1659 91.8644Z" fill="#F1F2F7"/>
<g id="Group 7">
<mask id="mask0_302_512" style="mask-type:luminance" maskUnits="userSpaceOnUse" x="82" y="221" width="434" height="165">
<path id="Clip 6" fill-rule="evenodd" clip-rule="evenodd" d="M516 221.084V385.83H299.489H82.979V221.084H516Z" fill="white"/>
</mask>
<g mask="url(#mask0_302_512)">
<path id="Fill 5" fill-rule="evenodd" clip-rule="evenodd" d="M516 284.78C516 291.67 510.118 297.307 502.929 297.307H419.444C415.854 297.307 412.578 298.718 410.217 300.99C407.847 303.253 406.373 306.393 406.373 309.834C406.373 316.724 412.255 322.361 419.444 322.361H434.955C438.544 322.361 441.821 323.772 444.182 326.044C446.553 328.307 448.025 331.447 448.025 334.888C448.025 341.777 442.144 347.415 434.955 347.415H399.29C365.786 371.533 324.153 385.83 279.034 385.83C182.671 385.83 102.192 320.649 82.979 233.778C107.638 230.162 133.797 227.256 161.105 225.135L163.16 226.93L165.096 224.834C197.901 222.387 232.338 221.084 267.855 221.084C343.313 221.084 413.928 226.964 474.304 237.186C471.369 249.362 467.221 261.087 461.993 272.253H502.929C506.528 272.253 509.787 273.664 512.157 275.936C514.527 278.199 516 281.339 516 284.78Z" fill="#E8EBF2"/>
</g>
</g>
<path id="Fill 8" fill-rule="evenodd" clip-rule="evenodd" d="M477.903 206.46C477.163 216.891 475.596 227.092 473.272 237.009C412.962 226.526 342.424 220.498 267.046 220.498C231.568 220.498 197.17 221.833 164.399 224.342L187.125 199.034L222.479 221.208L270.336 208.508L352.666 220.498L388.407 208.508L397.46 220.498L419.057 205.09L439.239 222.869L471.07 198.426L477.903 206.46Z" fill="#E0E2EE"/>
<path id="Fill 10" fill-rule="evenodd" clip-rule="evenodd" d="M360.569 217.535C369.622 204.887 374.808 189.888 374.673 173.837C374.303 129.192 332.922 93.3164 282.247 93.705C231.572 94.0944 190.793 130.603 191.164 175.248C191.535 219.892 232.916 255.768 283.591 255.38C301.696 255.241 318.537 250.489 332.69 242.403L370.551 250.971L360.569 217.535Z" fill="#D8DBEA"/>
<path id="Fill 12" fill-rule="evenodd" clip-rule="evenodd" d="M256.155 172.632C256.197 177.705 251.952 181.85 246.674 181.891C241.394 181.932 237.081 177.851 237.04 172.778C236.998 167.705 241.242 163.56 246.521 163.518C251.799 163.478 256.112 167.558 256.155 172.632Z" fill="#BEC0D6"/>
<path id="Fill 14" fill-rule="evenodd" clip-rule="evenodd" d="M290.565 172.631C290.607 177.705 286.362 181.85 281.083 181.891C275.804 181.931 271.49 177.851 271.449 172.778C271.406 167.705 275.651 163.559 280.93 163.518C286.208 163.478 290.522 167.558 290.565 172.631Z" fill="#BEC0D6"/>
<path id="Fill 16" fill-rule="evenodd" clip-rule="evenodd" d="M324.974 172.631C325.016 177.704 320.771 181.849 315.492 181.891C310.213 181.931 305.899 177.851 305.858 172.777C305.815 167.704 310.06 163.559 315.339 163.518C320.617 163.477 324.931 167.558 324.974 172.631Z" fill="#BEC0D6"/>
<path id="Fill 18" fill-rule="evenodd" clip-rule="evenodd" d="M164.399 224.15L162.545 225.987L160.575 224.413C161.843 224.318 163.121 224.23 164.399 224.15Z" fill="#F1F2F7"/>
<path id="Fill 20" fill-rule="evenodd" clip-rule="evenodd" d="M181.603 237.01C181.603 242.844 183.545 248.276 186.881 252.848L183.34 265.046L197.128 261.822C202.311 264.72 208.458 266.406 215.056 266.406C233.533 266.406 248.51 253.245 248.51 237.01C248.51 220.774 233.533 207.613 215.056 207.613C196.58 207.613 181.603 220.774 181.603 237.01Z" fill="url(#paint0_linear_302_512)"/>
<path id="Fill 22" fill-rule="evenodd" clip-rule="evenodd" d="M223.658 237.01C223.658 239.039 225.369 240.684 227.481 240.684C229.592 240.684 231.305 239.039 231.305 237.01C231.305 234.981 229.592 233.335 227.481 233.335C225.369 233.335 223.658 234.981 223.658 237.01Z" fill="white"/>
<path id="Fill 24" fill-rule="evenodd" clip-rule="evenodd" d="M212.188 237.01C212.188 239.039 213.9 240.684 216.012 240.684C218.123 240.684 219.835 239.039 219.835 237.01C219.835 234.981 218.123 233.335 216.012 233.335C213.9 233.335 212.188 234.981 212.188 237.01Z" fill="white"/>
<path id="Fill 26" fill-rule="evenodd" clip-rule="evenodd" d="M198.807 237.01C198.807 239.039 200.519 240.684 202.63 240.684C204.741 240.684 206.454 239.039 206.454 237.01C206.454 234.981 204.741 233.335 202.63 233.335C200.519 233.335 198.807 234.981 198.807 237.01Z" fill="white"/>
<path id="Fill 28" fill-rule="evenodd" clip-rule="evenodd" d="M160.576 224.623C133.27 226.761 107.115 229.69 82.4576 233.335C81.6124 229.497 80.8893 225.616 80.2881 221.702L122.553 191.078L160.576 224.623Z" fill="#E0E2EE"/>
<path id="Fill 30" fill-rule="evenodd" clip-rule="evenodd" d="M351.737 287.536C351.737 291.088 318.358 293.967 277.184 293.967C236.009 293.967 202.631 291.088 202.631 287.536C202.631 283.986 236.009 281.106 277.184 281.106C318.358 281.106 351.737 283.986 351.737 287.536Z" fill="#D8DBEA"/>
<path id="Fill 32" fill-rule="evenodd" clip-rule="evenodd" d="M474.079 347.247C466.719 347.247 460.698 341.46 460.698 334.386C460.698 327.313 466.719 321.525 474.079 321.525C481.439 321.525 487.46 327.313 487.46 334.386C487.46 341.46 481.439 347.247 474.079 347.247Z" fill="#E1E3EF"/>
</g>
<defs>
<linearGradient id="paint0_linear_302_512" x1="215.056" y1="178.216" x2="156.751" y2="244.568" gradientUnits="userSpaceOnUse">
<stop stop-color="#FF8960"/>
<stop offset="1" stop-color="#FF62A5"/>
</linearGradient>
</defs>
</svg>
