<svg width="126" height="120" viewBox="0 0 126 120" fill="none" xmlns="http://www.w3.org/2000/svg">
<path d="M109.736 56.4357C101.078 56.4357 94.0597 49.4171 94.0597 40.7591C94.0597 32.1012 101.078 25.0825 109.736 25.0825C118.394 25.0825 125.413 32.1012 125.413 40.7591C125.413 49.4171 118.394 56.4357 109.736 56.4357Z" fill="#FFE180"/>
<path d="M81.5181 31.3532C72.8602 31.3532 65.8415 24.3346 65.8415 15.6766C65.8415 7.01866 72.8602 1.0637e-06 81.5181 6.85247e-07C90.1761 3.06795e-07 97.1948 7.01866 97.1948 15.6766C97.1948 24.3346 90.1761 31.3532 81.5181 31.3532Z" fill="#FFE180"/>
<path d="M43.8943 31.3532C35.2364 31.3532 28.2177 24.3346 28.2177 15.6766C28.2177 7.01866 35.2364 1.0637e-06 43.8943 6.85247e-07C52.5523 3.06795e-07 59.571 7.01866 59.571 15.6766C59.571 24.3346 52.5523 31.3532 43.8943 31.3532Z" fill="#FFE180"/>
<path d="M15.6766 56.4357C7.01866 56.4357 -8.822e-07 49.4171 -1.26065e-06 40.7591C-1.6391e-06 32.1012 7.01866 25.0825 15.6766 25.0825C24.3346 25.0825 31.3532 32.1012 31.3532 40.7591C31.3532 49.4171 24.3346 56.4357 15.6766 56.4357Z" fill="#FFE180"/>
<path d="M29.2209 74.3698C34.6764 67.9738 39.254 62.5183 44.7721 56.1223C47.6566 52.7361 51.3563 49.35 55.7458 47.845C56.4355 47.5942 57.1253 47.4061 57.8151 47.2806C59.3828 47.0298 61.0758 47.0298 62.7062 47.0298C64.3366 47.0298 66.0296 47.0298 67.66 47.3434C68.3498 47.4688 69.0395 47.6569 69.7293 47.9077C74.1188 49.4127 77.7557 52.7988 80.703 56.185C86.1584 62.581 90.736 68.0365 96.2542 74.4326C104.469 82.6471 114.564 91.7395 112.683 104.469C110.865 110.865 106.287 117.198 98.0726 119.017C93.4951 119.957 78.8845 116.258 63.3333 116.258L62.2045 116.258C46.6533 116.258 32.0427 119.895 27.4651 119.017C19.2506 117.198 14.673 110.802 12.8545 104.469C10.9106 91.6768 21.0064 82.5844 29.2209 74.3698Z" fill="#FFE180"/>
</svg>
