<svg width="91" height="87" viewBox="0 0 91 87" fill="none" xmlns="http://www.w3.org/2000/svg">
<path d="M10.0483 68.0741C8.13383 58.7593 16.0051 54.2326 22.0304 46.8756C29.004 38.3607 32.9004 27.8958 43.8474 29.0348C54.3545 30.1281 56.3425 40.2714 61.6367 49.4128C66.3317 57.5196 72.9364 63.0299 69.9581 71.912C67.6184 78.8897 63.0731 82.6882 55.9427 84.5097C49.5008 86.1554 45.8407 81.7306 39.1989 81.4271C33.4442 81.1642 30.0183 84.1022 24.4864 82.4946C16.8339 80.2708 11.6526 75.8801 10.0483 68.0741Z" fill="#F2DBDB"/>
<path d="M16.8057 22.6085C20.5015 26.5138 22.1595 33.2115 18.8878 37.4785C16.0771 41.1443 9.85679 38.9652 6.83171 35.4742C6.65489 35.2701 6.48133 35.0583 6.31154 34.8382C3.50133 31.1963 2.43065 25.8455 4.66896 21.8268C5.55404 20.2377 7.11639 19.3598 9.9986 19.5444C12.9461 19.7333 15.115 20.8219 16.8057 22.6085Z" fill="#F2DBDB"/>
<path d="M38.8409 10.6906C40.2212 15.8873 38.4769 22.563 33.5639 24.7478C29.343 26.6248 24.9203 21.738 23.9313 17.2258C23.8735 16.962 23.8223 16.693 23.7783 16.4185C23.0501 11.8765 24.6666 6.66452 28.5533 4.20399C30.0902 3.23104 31.8821 3.20653 34.3257 4.74607C36.8246 6.32047 38.2095 8.31321 38.8409 10.6906Z" fill="#F2DBDB"/>
<path d="M64.422 13.7221C65.0311 19.0643 62.3337 25.4151 57.155 26.8615C52.7059 28.1041 49.0416 22.6256 48.7199 18.0175C48.7011 17.7481 48.6896 17.4744 48.686 17.1965C48.6267 12.5969 50.9847 7.67571 55.1881 5.80712C56.8502 5.06824 58.6266 5.30482 60.8201 7.18364C63.0632 9.10502 64.1434 11.2781 64.422 13.7221Z" fill="#F2DBDB"/>
<path d="M83.8309 37.2585C81.7511 42.2169 76.2939 46.4389 71.0689 45.1696C66.5801 44.0791 66.061 37.5086 68.0327 33.3311C68.1479 33.087 68.2717 32.8426 68.4044 32.5984C70.6008 28.5566 75.0632 25.4158 79.6437 25.8401C81.4549 26.0079 82.889 27.0826 83.8843 29.7938C84.9021 32.5664 84.7823 34.9901 83.8309 37.2585Z" fill="#F2DBDB"/>
</svg>
