<svg width="68" height="62" viewBox="0 0 68 62" fill="none" xmlns="http://www.w3.org/2000/svg">
<path d="M6.03737 33.6113C7.38533 30.5817 9.47468 27.8214 11.8336 25.667C24.9088 13.9524 43.5781 19.8097 49.5765 35.5638C51.1267 39.6033 51.8007 44.316 50.9245 48.8941C50.0483 53.4723 47.4872 57.9831 43.7803 60.1375C40.1408 62.2919 35.4903 61.7533 33.1314 58.3197C32.1878 56.9058 31.379 55.0881 31.0421 53.4049C30.6377 51.5872 30.3007 49.7694 28.8179 48.5575C28.1439 48.0189 27.4026 47.6823 26.5938 47.4803C24.0327 46.8744 21.6063 47.4803 19.7866 49.3654C18.3038 50.9139 16.6863 52.7317 14.4621 53.001C12.912 53.203 11.4292 52.7317 10.0813 51.9238C3.27405 47.8843 3.00446 40.2092 6.03737 33.6113Z" fill="#CE9A90"/>
<path d="M27.1329 0.0160331C20.1909 0.487309 16.1471 9.30691 22.0781 14.0197C24.5718 15.9721 28.3461 16.2414 31.042 14.6256C33.8053 13.0098 35.2881 9.57621 34.7489 6.41193C34.0749 2.91102 30.705 -0.253268 27.1329 0.0160331Z" fill="#CE9A90"/>
<path d="M47.0828 5.87333C40.1408 6.34461 36.0969 15.1642 42.0279 19.877C44.5216 21.8294 48.2959 22.0987 50.9919 20.4829C53.6878 18.8671 55.2379 15.4335 54.6988 12.2692C54.0248 8.76832 50.7223 5.60403 47.0828 5.87333Z" fill="#CE9A90"/>
<path d="M59.821 23.6472C54.227 23.2432 50.5875 29.8411 53.4182 34.5538C55.5075 38.0547 60.832 39.1993 64.2019 36.8429C70.2677 32.5341 66.6282 24.1184 59.821 23.6472Z" fill="#CE9A90"/>
<path d="M7.38533 8.29699C1.7913 7.89304 -1.8482 14.4909 0.98252 19.2037C3.07186 22.7046 8.39631 23.8491 11.7662 21.4927C17.832 17.1839 14.1925 8.76827 7.38533 8.29699Z" fill="#CE9A90"/>
</svg>
